<svg id="Layer_1" data-name="Layer 1" xmlns="http://www.w3.org/2000/svg" viewBox="0 0 288.72 172.35">
  <defs>
    <style>
      .cls-1 {
        fill: #fff;
      }

      .cls-1, .cls-2 {
        stroke: #3d4752;
        stroke-miterlimit: 10;
        stroke-width: 3px;
      }

      .cls-2 {
        fill: none;
      }

      .cls-3 {
        fill: #3d4752;
      }
    </style>
  </defs>
  <title>decision-tree-feature</title>
  <g>
    <path class="cls-1" d="M132.13,37.46a11.87,11.87,0,1,1-11.87-11.87A11.9,11.9,0,0,1,132.13,37.46Z" transform="translate(-0.09 -0.08)"/>
    <rect class="cls-1" x="1.5" y="74.14" width="23.74" height="23.74"/>
    <line class="cls-2" x1="25.24" y1="86.01" x2="108.31" y2="37.38"/>
    <polygon class="cls-3" points="25.53 86.55 25.23 86.72 25.23 86.01 25.53 86.55"/>
    <polygon class="cls-3" points="108.31 37.38 108.01 36.84 108.43 36.66 108.31 37.38"/>
    <polygon class="cls-3" points="25.47 85.48 25.23 86.01 25.23 85.36 25.47 85.48"/>
    <polygon class="cls-3" points="108.31 123.43 108.07 123.31 108.31 122.78 108.31 123.43"/>
    <polygon class="cls-3" points="132.1 36.78 131.99 37.97 132.04 37.38 132.04 36.78 132.1 36.78"/>
    <polygon class="cls-3" points="132.28 37.91 131.99 38.03 132.04 37.38 132.28 37.91"/>
    <path class="cls-1" d="M132.13,134.4a11.87,11.87,0,1,1-11.87-11.87A11.9,11.9,0,0,1,132.13,134.4Z" transform="translate(-0.09 -0.08)"/>
    <line class="cls-2" x1="132.04" y1="134.32" x2="203.99" y2="110.51"/>
    <polygon class="cls-3" points="132.16 134.91 131.99 134.97 132.04 134.32 132.16 134.91"/>
    <line class="cls-2" x1="132.04" y1="134.32" x2="203.91" y2="158.11"/>
    <polygon class="cls-3" points="132.16 133.73 132.04 134.32 132.04 133.73 132.16 133.73"/>
    <line class="cls-2" x1="203.6" y1="158.06" x2="263.49" y2="158.06"/>
    <polygon class="cls-3" points="263.49 158.06 264.68 158.65 263.49 158.65 263.49 157.46 264.68 157.46 263.49 158.06"/>
    <line class="cls-2" x1="203.7" y1="110.59" x2="263.49" y2="110.59"/>
    <polygon class="cls-3" points="263.49 110.59 264.68 111.18 263.49 111.18 263.49 109.99 264.68 109.99 263.49 110.59"/>
    <polygon class="cls-1" points="287.22 169.92 287.22 146.19 263.49 158.06 287.22 169.92"/>
    <polygon class="cls-1" points="287.22 122.45 287.22 98.72 263.49 110.59 287.22 122.45"/>
    <line class="cls-2" x1="132.04" y1="38.03" x2="203.99" y2="14.22"/>
    <line class="cls-2" x1="132.04" y1="38.03" x2="203.91" y2="61.82"/>
    <line class="cls-2" x1="203.6" y1="61.77" x2="263.49" y2="61.77"/>
    <polygon class="cls-3" points="263.49 61.77 264.68 62.36 263.49 62.36 263.49 61.17 264.68 61.17 263.49 61.77"/>
    <line class="cls-2" x1="203.7" y1="14.29" x2="263.49" y2="14.29"/>
    <polygon class="cls-3" points="263.49 14.29 264.68 14.89 263.49 14.89 263.49 13.7 264.68 13.7 263.49 14.29"/>
    <polygon class="cls-1" points="287.22 73.63 287.22 49.9 263.49 61.77 287.22 73.63"/>
    <polygon class="cls-1" points="287.22 26.16 287.22 2.43 263.49 14.29 287.22 26.16"/>
    <line class="cls-2" x1="25.24" y1="85.69" x2="108.31" y2="134.32"/>
  </g>
</svg>
